<svg width="18" height="20" viewBox="0 0 18 20" fill="none" xmlns="http://www.w3.org/2000/svg">
<path d="M11.4736 0.000213623C11.5167 0.000213623 11.5589 0.00384213 11.5999 0.0108101L11.7363 0.0119136C11.9405 0.0119136 12.1359 0.0951706 12.2773 0.242459L17.3433 5.51846C17.4774 5.65814 17.5523 5.84427 17.5523 6.03791V15.3399C17.5523 17.82 15.5409 19.8649 13.0723 19.8649H5.0843C2.48574 19.8649 0.500298 17.9221 0.500298 15.3399V4.49091C0.500298 2.02974 2.597 0.0119136 5.0843 0.0119136L11.3475 0.0107678C11.3885 0.00382746 11.4306 0.000213623 11.4736 0.000213623ZM10.7233 1.51021L5.0843 1.51191C3.41283 1.51191 2.0003 2.87131 2.0003 4.49091V15.3399C2.0003 17.0863 3.30696 18.3649 5.0843 18.3649H13.0723C14.7068 18.3649 16.0523 16.997 16.0523 15.3399L16.0513 6.98321L15.1755 6.98628C14.842 6.98588 14.4627 6.98517 14.041 6.98421C12.2707 6.98047 10.8264 5.59369 10.7288 3.84762L10.7236 3.65921L10.7233 1.51021ZM8.8437 7.71441C9.22339 7.71441 9.53719 7.99657 9.58685 8.36264L9.5937 8.46441L9.5933 10.1642H11.2944C11.7086 10.1642 12.0444 10.5 12.0444 10.9142C12.0444 11.2939 11.7622 11.6077 11.3962 11.6574L11.2944 11.6642H9.5933L9.5937 13.3654C9.5937 13.7796 9.25791 14.1154 8.8437 14.1154C8.464 14.1154 8.15021 13.8333 8.10055 13.4672L8.0937 13.3654L8.0933 11.6642H6.3934C5.97919 11.6642 5.6434 11.3284 5.6434 10.9142C5.6434 10.5345 5.92555 10.2207 6.29163 10.1711L6.3934 10.1642H8.0933L8.0937 8.46441C8.0937 8.0502 8.42948 7.71441 8.8437 7.71441ZM12.2233 2.35121L12.2236 3.65921C12.2236 4.66578 13.0379 5.48209 14.0443 5.48422L15.2313 5.48421L12.2233 2.35121Z" fill="#5AC97A"/>
</svg>
