<svg width="65" height="63" viewBox="0 0 65 63" fill="none" xmlns="http://www.w3.org/2000/svg">
<path d="M0 8C0 3.58172 3.58172 0 8 0H57C61.4183 0 65 3.58172 65 8V55C65 59.4183 61.4183 63 57 63H8C3.58172 63 0 59.4183 0 55V8Z" fill="#FFE6EE"/>
<path fill-rule="evenodd" clip-rule="evenodd" d="M15.5417 31.4312V31.5688C15.5582 35.7088 17.0582 39.499 19.5377 42.4351C20.2549 43.2844 21.054 44.0622 21.9228 44.7564C22.7973 45.455 23.7424 46.0689 24.7458 46.5857C26.1834 47.3261 27.7406 47.8671 29.3807 48.1721C30.3286 48.3483 31.3042 48.4457 32.3004 48.4572C32.3668 48.4579 32.4333 48.4583 32.4999 48.4583C38.1879 48.4583 43.2218 45.658 46.2983 41.3608C46.9425 40.4609 47.501 39.4953 47.9616 38.476C48.9231 36.3483 49.4583 33.9866 49.4583 31.5C49.4583 26.4738 47.2717 21.9584 43.7979 18.853C42.9933 18.1337 42.1196 17.4901 41.1881 16.9333C38.6471 15.4145 35.6755 14.5417 32.4999 14.5417C32.3274 14.5417 32.1554 14.5442 31.9841 14.5494C29.4144 14.6261 26.9883 15.2746 24.8286 16.3719C23.3593 17.1185 22.0133 18.0728 20.8294 19.1962C19.7298 20.2395 18.77 21.4286 17.9809 22.7326C17.4243 23.6524 16.9525 24.6294 16.5767 25.6527C15.9146 27.4551 15.5498 29.4011 15.5417 31.4312ZM45.5753 36.1536C46.093 34.6989 46.3749 33.1324 46.3749 31.5C46.3749 27.7116 44.8566 24.2778 42.3954 21.7739C41.1296 23.8749 39.4604 25.6174 37.5364 26.9473C38.2584 28.8215 38.6491 30.8221 38.6736 32.8532C39.8527 33.1163 41.0216 33.5103 42.1616 34.0419C43.4059 34.6221 44.5468 35.3342 45.5753 36.1536ZM38.4221 35.9638C39.2451 36.1745 40.0605 36.4642 40.8585 36.8363C42.0923 37.4117 43.2018 38.1454 44.174 39.0019C41.8562 42.6013 37.9192 45.0594 33.3924 45.3467C34.8922 43.9234 36.1552 42.2 37.0819 40.2125C37.7277 38.8277 38.1703 37.4003 38.4221 35.9638ZM35.5779 32.4587C35.5191 31.0963 35.2594 29.7554 34.8146 28.4795C30.4785 30.4205 25.3557 30.5388 20.7122 28.3734C20.186 28.1281 19.6783 27.8591 19.1898 27.5685C18.8222 28.815 18.6249 30.1344 18.6249 31.5C18.6249 34.5003 19.5773 37.2782 21.1961 39.5479C24.5303 34.8724 29.9849 32.2688 35.5779 32.4587ZM23.3225 41.9065C25.9828 37.7576 30.6059 35.4131 35.3653 35.5378C35.1564 36.6778 34.8002 37.81 34.2875 38.9095C33.0823 41.4939 31.1825 43.5327 28.9139 44.9071C26.812 44.3464 24.9065 43.3044 23.3225 41.9065ZM32.4999 17.625C35.2513 17.625 37.8157 18.4258 39.9726 19.8071C38.9924 21.5537 37.679 23.0148 36.1508 24.1471C34.5769 21.5882 32.3077 19.42 29.4583 17.9594C30.4372 17.7405 31.4551 17.625 32.4999 17.625ZM27.5763 20.4706C30.1046 21.6496 32.1107 23.4935 33.4835 25.697C29.9508 27.2551 25.7895 27.339 22.0153 25.579C21.4522 25.3164 20.9151 25.0209 20.4051 24.6958C21.5753 22.6201 23.2644 20.8759 25.2964 19.6391C26.0663 19.8459 26.8289 20.1221 27.5763 20.4706Z" fill="#F30353"/>
</svg>
