<svg width="65" height="63" viewBox="0 0 65 63" fill="none" xmlns="http://www.w3.org/2000/svg">
<rect width="65" height="63" rx="8" fill="#E9F5FB"/>
<path d="M20 27.5C20 26.6716 20.6716 26 21.5 26H27.5C28.3284 26 29 26.6716 29 27.5C29 28.3284 28.3284 29 27.5 29H21.5C20.6716 29 20 28.3284 20 27.5Z" fill="#2D9CDB"/>
<path fill-rule="evenodd" clip-rule="evenodd" d="M20 18.5C16.6863 18.5 14 21.1863 14 24.5V39.5C14 42.8137 16.6863 45.5 20 45.5H44C47.3137 45.5 50 42.8137 50 39.5V24.5C50 21.1863 47.3137 18.5 44 18.5H20ZM44 21.5H20C18.3431 21.5 17 22.8431 17 24.5V35H47V24.5C47 22.8431 45.6569 21.5 44 21.5ZM47 38H17V39.5C17 41.1569 18.3431 42.5 20 42.5H44C45.6569 42.5 47 41.1569 47 39.5V38Z" fill="#2D9CDB"/>
</svg>
