<svg width="65" height="63" viewBox="0 0 65 63" fill="none" xmlns="http://www.w3.org/2000/svg">
<rect width="65" height="63" rx="8" fill="#FFE6E6"/>
<path fill-rule="evenodd" clip-rule="evenodd" d="M21.5 25.5H42.5C43.3284 25.5 44 26.1716 44 27V39C44 39.8284 43.3284 40.5 42.5 40.5H21.5C20.6716 40.5 20 39.8284 20 39V27C20 26.1716 20.6716 25.5 21.5 25.5ZM17 27C17 24.5147 19.0147 22.5 21.5 22.5H42.5C44.9853 22.5 47 24.5147 47 27V39C47 41.4853 44.9853 43.5 42.5 43.5H21.5C19.0147 43.5 17 41.4853 17 39V27ZM29 28.5L35 33L29 37.5V28.5Z" fill="#FF0000"/>
</svg>
