<svg width="304" height="304" viewBox="0 0 304 304" fill="none" xmlns="http://www.w3.org/2000/svg">
<path d="M56.0941 264.79C110.103 293.664 197.679 293.664 251.712 264.79C305.745 235.916 305.727 189.167 251.712 160.317C197.697 131.468 110.127 131.468 56.1184 160.317C2.10976 189.167 2.07936 235.94 56.0941 264.79Z" fill="#F5F5F5"/>
<path d="M52.8535 212.855L51.297 211.955C50.6309 211.521 50.0766 210.935 49.6794 210.246C49.2822 209.558 49.0531 208.785 49.0109 207.991V71.5494C49.0531 70.7554 49.2822 69.9825 49.6794 69.2937C50.0766 68.6049 50.6309 68.0195 51.297 67.5853L114.225 31.2512C114.934 30.8917 115.719 30.7043 116.514 30.7043C117.309 30.7043 118.094 30.8917 118.803 31.2512L120.384 32.151C121.05 32.5853 121.604 33.1706 122.002 33.8595C122.399 34.5483 122.628 35.3211 122.67 36.1152V172.556C122.628 173.35 122.399 174.123 122.002 174.812C121.604 175.501 121.05 176.086 120.384 176.521L57.4378 212.855C56.7272 213.214 55.942 213.402 55.1456 213.402C54.3492 213.402 53.564 213.214 52.8535 212.855Z" fill="#37474F"/>
<path d="M58.216 74.2185L49.704 69.2937C49.2927 69.9764 49.0625 70.7528 49.0352 71.5494V207.991C49.0774 208.785 49.3065 209.558 49.7037 210.246C50.101 210.935 50.6552 211.521 51.3213 211.955L52.8778 212.855C53.5884 213.214 54.3736 213.402 55.1699 213.402C55.9663 213.402 56.7515 213.214 57.4621 212.855L58.2403 212.405L58.216 74.2185Z" fill="#263238"/>
<path d="M55.1456 75.0941V211.535C55.1456 212.995 56.1732 213.584 57.4378 212.855L120.384 176.521C121.05 176.086 121.604 175.501 122.002 174.812C122.399 174.123 122.628 173.351 122.67 172.557V36.1152C122.67 34.656 121.649 34.0663 120.384 34.7959L57.4378 71.136C56.773 71.5708 56.2194 72.1553 55.8213 72.8427C55.4233 73.5301 55.1919 74.3012 55.1456 75.0941Z" fill="#455A64"/>
<path d="M60.192 83.7155L117.411 50.6828C118.493 50.0748 119.375 50.5673 119.375 51.8198V160.652C119.337 161.334 119.14 161.997 118.799 162.588C118.458 163.18 117.982 163.683 117.411 164.057L60.192 197.101C59.1037 197.709 58.2282 197.217 58.2282 195.964V87.1324C58.2613 86.448 58.4566 85.7812 58.7981 85.1871C59.1395 84.593 59.6173 84.0886 60.192 83.7155Z" fill="#FAFAFA"/>
<path d="M88.9018 56.5015C89.7469 56.0151 90.4339 56.4103 90.4339 57.3891C90.4056 57.9213 90.2521 58.4393 89.9859 58.901C89.7197 59.3627 89.3482 59.755 88.9018 60.0461C88.0506 60.5386 87.3636 60.1373 87.3636 59.1645C87.3926 58.6309 87.547 58.1117 87.8142 57.649C88.0815 57.1863 88.4541 56.7932 88.9018 56.5015Z" fill="#263238"/>
<path d="M84.4694 64.1683C87.5885 62.4477 93.1456 59.1341 96.2221 57.3283C96.745 57.0182 97.1645 57.231 97.1645 57.8026C97.1404 58.1209 97.0421 58.4292 96.8774 58.7026C96.7127 58.9761 96.4861 59.2072 96.216 59.3773L84.4451 66.1747C83.9222 66.4787 83.4966 66.2598 83.4966 65.6944C83.5235 65.3804 83.6261 65.0775 83.7955 64.8118C83.9649 64.546 84.1961 64.3252 84.4694 64.1683Z" fill="#263238"/>
<path d="M81.472 65.8889C81.9462 65.6092 82.3293 65.8342 82.3293 66.3814C82.3142 66.6806 82.2287 66.972 82.0797 67.2319C81.9307 67.4918 81.7225 67.7128 81.472 67.8771C80.9978 68.1507 80.6086 67.9257 80.6086 67.3785C80.6258 67.0799 80.7129 66.7896 80.8629 66.5308C81.0128 66.2721 81.2215 66.0522 81.472 65.8889Z" fill="#263238"/>
<path d="M88.9018 184.06C90.592 183.081 91.9418 183.871 91.9418 185.829C91.8874 186.891 91.5839 187.926 91.0558 188.849C90.5277 189.772 89.7898 190.558 88.9018 191.143C87.2054 192.122 85.8314 191.331 85.8314 189.374C85.8891 188.309 86.1973 187.273 86.7308 186.349C87.2643 185.426 88.0081 184.642 88.9018 184.06Z" fill="#263238"/>
<path d="M152.912 205.985C152.538 205.73 152.23 205.39 152.011 204.994C151.793 204.598 151.67 204.157 151.653 203.705V131.121C151.678 130.655 151.813 130.201 152.046 129.796C152.28 129.392 152.606 129.048 152.997 128.793L246.112 75.0335C246.501 74.7885 246.949 74.6542 247.409 74.6453C247.868 74.6363 248.321 74.7529 248.719 74.9825C249.117 75.2122 249.445 75.5461 249.667 75.9483C249.889 76.3505 249.997 76.8057 249.979 77.2648V149.848C249.954 150.314 249.82 150.768 249.586 151.173C249.353 151.578 249.027 151.922 248.636 152.177L155.52 205.942C155.119 206.152 154.674 206.266 154.221 206.273C153.768 206.28 153.32 206.182 152.912 205.985Z" fill="#455A64"/>
<path d="M249.967 77.0397C249.87 76.3466 249.31 76.0912 248.636 76.4864L155.52 130.246C155.123 130.492 154.796 130.838 154.572 131.249L152.049 129.796C152.272 129.385 152.599 129.039 152.997 128.793L246.118 75.0272C246.49 74.7926 246.917 74.6597 247.357 74.6418C247.796 74.624 248.232 74.7219 248.622 74.9256C249.012 75.1294 249.341 75.4319 249.577 75.8029C249.813 76.1739 249.948 76.6004 249.967 77.0397Z" fill="#37474F"/>
<path d="M155.204 206.076C155.174 206.094 155.141 206.106 155.107 206.112C155.047 206.141 154.984 206.162 154.918 206.173H154.815C154.752 206.191 154.686 206.204 154.62 206.209H154.462C154.23 206.24 153.995 206.24 153.763 206.209C153.467 206.179 153.18 206.09 152.918 205.948C152.543 205.694 152.232 205.356 152.013 204.959C151.793 204.563 151.67 204.121 151.653 203.668V131.115C151.671 130.649 151.807 130.195 152.049 129.796L154.572 131.249C154.33 131.65 154.193 132.106 154.177 132.574V205.164C154.156 205.34 154.187 205.518 154.265 205.677C154.344 205.835 154.468 205.968 154.62 206.057C154.687 206.09 154.759 206.111 154.833 206.118C154.916 206.13 155 206.13 155.083 206.118L155.204 206.076Z" fill="#263238"/>
<path d="M161.728 151.495V162.944C161.728 163.801 162.336 164.16 163.072 163.722L178.028 155.083C178.419 154.827 178.745 154.483 178.978 154.078C179.211 153.674 179.346 153.22 179.372 152.754V141.311C179.372 140.454 178.764 140.095 178.028 140.533L163.072 149.173C162.68 149.426 162.355 149.769 162.121 150.173C161.887 150.576 161.753 151.03 161.728 151.495Z" fill="#92E3A9"/>
<path d="M181.747 142.372L159.063 155.479L159.367 156.006L182.052 142.899L181.747 142.372Z" fill="white"/>
<path d="M167.084 151.368H166.476V157.204H167.084V151.368Z" fill="white"/>
<path d="M174.648 147.027H174.04V152.851H174.648V147.027Z" fill="white"/>
<path d="M181.749 148.221L159.065 161.328L159.369 161.854L182.053 148.747L181.749 148.221Z" fill="white"/>
<path d="M162.336 142.229C162.269 142.193 162.239 142.096 162.239 141.938V135.584C162.235 135.442 162.268 135.302 162.336 135.177C162.411 135.05 162.521 134.947 162.652 134.879L165.364 133.31C166.039 132.921 166.549 132.805 166.89 132.97C167.23 133.134 167.401 133.535 167.401 134.186C167.397 134.535 167.324 134.88 167.188 135.201C167.058 135.532 166.866 135.835 166.622 136.095C167.23 135.973 167.571 136.326 167.571 137.159C167.565 137.576 167.483 137.988 167.328 138.375C167.155 138.821 166.904 139.233 166.586 139.591C166.237 139.985 165.826 140.319 165.37 140.582L162.658 142.144C162.518 142.272 162.409 142.272 162.336 142.229ZM165.102 136.417C165.339 136.287 165.538 136.099 165.68 135.87C165.815 135.648 165.884 135.393 165.881 135.134C165.881 134.842 165.82 134.672 165.692 134.617C165.564 134.563 165.37 134.617 165.084 134.769L163.747 135.548V137.189L165.102 136.417ZM165.254 139.366C165.499 139.229 165.702 139.03 165.843 138.788C165.984 138.546 166.058 138.272 166.057 137.992C166.057 137.688 165.978 137.499 165.826 137.438C165.714 137.412 165.597 137.41 165.485 137.435C165.372 137.459 165.267 137.508 165.175 137.578L163.765 138.399V140.223L165.254 139.366Z" fill="white"/>
<path d="M167.565 139.147C167.558 139.084 167.558 139.021 167.565 138.958L169.96 130.988C169.992 130.87 170.039 130.758 170.1 130.653C170.159 130.568 170.238 130.499 170.331 130.452L171.006 130.063C171.103 130.009 171.176 129.984 171.225 130.003C171.29 130.041 171.34 130.101 171.365 130.173L173.76 135.383C173.769 135.434 173.769 135.485 173.76 135.535C173.761 135.593 173.747 135.649 173.718 135.698C173.689 135.748 173.647 135.788 173.596 135.815L172.477 136.46C172.423 136.501 172.357 136.522 172.289 136.52C172.246 136.52 172.216 136.472 172.18 136.405L171.76 135.389L169.51 136.691L169.091 138.186C169.071 138.273 169.036 138.355 168.988 138.429C168.936 138.492 168.871 138.544 168.799 138.581L167.735 139.232C167.62 139.293 167.565 139.268 167.565 139.147ZM171.456 134.368L170.684 132.501L169.912 135.256L171.456 134.368Z" fill="white"/>
<path d="M174.684 135.104C174.618 135.067 174.587 134.97 174.587 134.818V128.47C174.583 128.33 174.616 128.192 174.684 128.069C174.763 127.939 174.877 127.833 175.013 127.765L175.584 127.437C175.655 127.388 175.736 127.357 175.821 127.346C175.887 127.355 175.948 127.387 175.992 127.437L178.582 130.161V126.178C178.577 126.034 178.611 125.892 178.679 125.765C178.756 125.639 178.865 125.537 178.995 125.467L179.688 125.066C179.846 124.974 179.95 124.95 180.017 124.993C180.084 125.035 180.108 125.133 180.108 125.297V131.626C180.112 131.765 180.081 131.904 180.017 132.027C179.936 132.154 179.823 132.257 179.688 132.325L179.08 132.666C179.012 132.712 178.932 132.74 178.849 132.745C178.784 132.737 178.724 132.707 178.679 132.66L176.083 129.948V133.936C176.087 134.074 176.055 134.21 175.992 134.332C175.912 134.461 175.798 134.566 175.663 134.636L174.97 135.031C174.855 135.122 174.745 135.14 174.684 135.104Z" fill="white"/>
<path d="M186.255 128.355C186.256 128.412 186.241 128.469 186.212 128.518C186.183 128.567 186.141 128.608 186.091 128.635L184.935 129.297C184.883 129.33 184.825 129.355 184.765 129.37C184.724 129.376 184.683 129.365 184.65 129.34L182.607 127.419V130.228C182.61 130.367 182.579 130.505 182.516 130.629C182.433 130.755 182.32 130.857 182.187 130.927L181.494 131.328C181.348 131.413 181.245 131.438 181.178 131.401C181.111 131.365 181.081 131.261 181.081 131.109V124.75C181.076 124.607 181.109 124.467 181.178 124.342C181.255 124.215 181.364 124.11 181.494 124.038L182.187 123.637C182.345 123.552 182.449 123.527 182.516 123.564C182.582 123.6 182.607 123.704 182.607 123.868V126.622V126.567L184.583 122.378C184.611 122.313 184.65 122.254 184.698 122.202C184.756 122.149 184.819 122.102 184.887 122.062L186.024 121.406C186.139 121.345 186.194 121.375 186.194 121.497C186.19 121.567 186.171 121.635 186.139 121.697L183.944 126.221L186.2 128.215C186.22 128.232 186.235 128.254 186.244 128.278C186.254 128.303 186.257 128.329 186.255 128.355Z" fill="white"/>
<path d="M191.064 124.944C190.456 124.634 190.176 123.868 190.176 122.64C190.162 121.476 190.46 120.329 191.04 119.32C191.641 118.319 192.494 117.493 193.514 116.925C193.896 116.693 194.305 116.507 194.73 116.371C195.029 116.268 195.348 116.236 195.66 116.28C195.674 116.282 195.687 116.286 195.699 116.292C195.711 116.299 195.722 116.308 195.73 116.319C195.739 116.329 195.745 116.342 195.749 116.355C195.752 116.368 195.753 116.382 195.752 116.396C195.746 116.469 195.728 116.541 195.697 116.608L195.369 117.447C195.346 117.522 195.302 117.587 195.241 117.636C195.192 117.661 195.137 117.672 195.083 117.666C194.587 117.665 194.103 117.811 193.691 118.086C193.07 118.438 192.557 118.953 192.207 119.575C191.848 120.248 191.668 121.002 191.684 121.764C191.684 122.603 191.867 123.132 192.231 123.339C192.481 123.433 192.75 123.461 193.014 123.42C193.277 123.378 193.525 123.269 193.733 123.102C194.293 122.791 194.789 122.378 195.198 121.886C195.243 121.825 195.296 121.772 195.356 121.728C195.399 121.728 195.442 121.728 195.484 121.77L195.843 122.281C195.865 122.311 195.877 122.347 195.879 122.384C195.862 122.467 195.825 122.545 195.77 122.609C195.17 123.39 194.409 124.033 193.539 124.494C192.481 125.102 191.648 125.248 191.064 124.944Z" fill="white"/>
<path d="M196.226 122.597C196.222 122.536 196.222 122.476 196.226 122.415L198.658 114.438C198.684 114.319 198.732 114.206 198.798 114.103C198.858 114.023 198.935 113.957 199.023 113.909L199.698 113.514C199.762 113.466 199.843 113.447 199.923 113.459C199.99 113.495 200.04 113.556 200.062 113.629L202.458 118.834C202.466 118.886 202.466 118.939 202.458 118.992C202.46 119.048 202.446 119.104 202.417 119.153C202.387 119.202 202.345 119.241 202.294 119.265L201.175 119.916C201.12 119.954 201.054 119.976 200.987 119.977C200.961 119.967 200.938 119.951 200.919 119.931C200.9 119.911 200.886 119.887 200.877 119.861L200.452 118.846L198.208 120.141L197.795 121.643C197.772 121.726 197.737 121.806 197.691 121.88C197.638 121.945 197.572 121.999 197.497 122.038L196.384 122.682C196.281 122.749 196.226 122.719 196.226 122.597ZM200.117 117.818L199.351 115.958L198.573 118.712L200.117 117.818Z" fill="white"/>
<path d="M203.34 118.56C203.279 118.524 203.242 118.426 203.242 118.268V111.933C203.241 111.791 203.275 111.651 203.34 111.526C203.419 111.4 203.53 111.297 203.662 111.228L206.003 109.878C207.563 108.97 208.345 109.306 208.349 110.887C208.353 111.383 208.258 111.875 208.07 112.334C207.878 112.809 207.6 113.244 207.249 113.617L208.222 115.514C208.232 115.558 208.232 115.604 208.222 115.648C208.222 115.712 208.204 115.774 208.169 115.828C208.135 115.882 208.085 115.925 208.027 115.952L207.006 116.56C206.948 116.601 206.882 116.629 206.811 116.639C206.763 116.639 206.726 116.602 206.696 116.535L205.844 114.711L204.744 115.319V117.411C204.754 117.556 204.72 117.7 204.646 117.825C204.572 117.95 204.462 118.049 204.331 118.11L203.637 118.511C203.516 118.56 203.406 118.597 203.34 118.56ZM205.772 113.441C206.089 113.271 206.36 113.027 206.562 112.729C206.743 112.442 206.836 112.108 206.829 111.769C206.829 111.398 206.744 111.161 206.586 111.094C206.428 111.027 206.185 111.094 205.863 111.252L204.768 111.872V114.006L205.772 113.441Z" fill="white"/>
<path d="M209.207 115.174C209.14 115.137 209.109 115.04 209.109 114.882V108.552C209.105 108.41 209.138 108.27 209.207 108.145C209.282 108.016 209.391 107.911 209.523 107.841L211.468 106.722C212.522 106.11 213.323 105.938 213.87 106.206C214.417 106.473 214.691 107.233 214.691 108.486C214.721 109.618 214.435 110.736 213.864 111.714C213.269 112.66 212.445 113.44 211.468 113.982L209.523 115.101C209.377 115.186 209.268 115.21 209.207 115.174ZM211.541 112.644C212.053 112.361 212.474 111.94 212.757 111.428C213.058 110.789 213.198 110.085 213.165 109.379C213.165 108.528 213.031 108.005 212.757 107.811C212.484 107.616 212.076 107.683 211.541 107.999L210.636 108.522V113.185L211.541 112.644Z" fill="white"/>
<path d="M161.728 173.335V176.053C161.728 176.91 162.336 177.269 163.072 176.831L178.028 168.191C178.417 167.934 178.74 167.59 178.971 167.185C179.202 166.781 179.336 166.328 179.36 165.862V163.145C179.36 162.287 178.752 161.929 178.016 162.366L163.06 171.006C162.67 171.262 162.347 171.607 162.116 172.011C161.884 172.416 161.751 172.869 161.728 173.335Z" fill="#EBEBEB"/>
<path d="M182.747 161.205V163.923C182.747 164.78 183.355 165.139 184.09 164.695L199.053 156.061C199.444 155.806 199.769 155.462 200.003 155.057C200.236 154.653 200.371 154.199 200.397 153.733V151.015C200.397 150.158 199.789 149.799 199.053 150.237L184.09 158.877C183.699 159.131 183.373 159.475 183.14 159.88C182.906 160.285 182.771 160.739 182.747 161.205Z" fill="#EBEBEB"/>
<path d="M203.759 149.069V151.787C203.759 152.644 204.367 153.003 205.103 152.565L220.06 143.926C220.451 143.672 220.777 143.329 221.01 142.926C221.244 142.522 221.378 142.069 221.403 141.603V138.879C221.403 138.022 220.795 137.663 220.06 138.107L205.103 146.741C204.712 146.996 204.387 147.34 204.153 147.745C203.92 148.149 203.785 148.603 203.759 149.069Z" fill="#EBEBEB"/>
<path d="M224.765 136.94V139.658C224.765 140.515 225.373 140.874 226.109 140.436L241.072 131.796C241.463 131.541 241.789 131.197 242.023 130.793C242.256 130.388 242.391 129.934 242.416 129.468V126.75C242.416 125.893 241.808 125.534 241.072 125.972L226.109 134.611C225.718 134.867 225.393 135.211 225.16 135.615C224.926 136.02 224.791 136.474 224.765 136.94Z" fill="#EBEBEB"/>
<path d="M234.044 140.223L230.614 142.205C230.381 142.358 230.186 142.563 230.047 142.805C229.907 143.047 229.827 143.319 229.812 143.597V144.649C229.812 145.16 230.171 145.373 230.614 145.111L234.044 143.135C234.279 142.983 234.476 142.777 234.616 142.533C234.757 142.29 234.838 142.017 234.852 141.737V140.685C234.852 140.174 234.493 139.968 234.044 140.223Z" fill="#92E3A9"/>
<path d="M241.607 135.858L238.178 137.834C237.944 137.988 237.749 138.194 237.61 138.437C237.471 138.68 237.39 138.952 237.375 139.232V140.284C237.375 140.795 237.734 141.001 238.178 140.746L241.607 138.764C241.842 138.612 242.038 138.407 242.179 138.165C242.319 137.923 242.401 137.651 242.416 137.372V136.32C242.416 135.809 242.057 135.584 241.607 135.858Z" fill="#92E3A9"/>
<path d="M198.311 168.13L241.005 143.488C241.747 143.056 242.349 143.409 242.349 144.266V145.525C242.324 145.991 242.189 146.445 241.956 146.85C241.722 147.255 241.397 147.599 241.005 147.854L198.311 172.502C197.57 172.934 196.968 172.587 196.968 171.73V170.465C196.993 169.998 197.127 169.543 197.361 169.137C197.594 168.732 197.92 168.387 198.311 168.13Z" fill="#92E3A9"/>
<path d="M107.805 66.8799V129.395C107.83 129.851 107.962 130.295 108.19 130.691C108.418 131.087 108.736 131.424 109.118 131.674L111.428 133.006C111.836 133.213 112.287 133.32 112.745 133.32C113.202 133.32 113.653 133.213 114.061 133.006L153.411 110.291C153.794 110.041 154.113 109.705 154.342 109.308C154.571 108.912 154.704 108.468 154.73 108.011V45.5087C154.705 45.0516 154.573 44.6069 154.343 44.2107C154.114 43.8145 153.795 43.478 153.411 43.2287L151.106 41.8972C150.698 41.6905 150.247 41.5828 149.79 41.5828C149.333 41.5828 148.882 41.6905 148.474 41.8972L109.118 64.6182C108.738 64.867 108.422 65.2011 108.194 65.5937C107.966 65.9863 107.832 66.4268 107.805 66.8799Z" fill="#EBEBEB"/>
<path d="M154.718 45.2959C154.627 44.615 154.073 44.3657 153.411 44.7487L114.061 67.4879C113.67 67.7315 113.348 68.0704 113.124 68.4729L108.188 65.6214C108.412 65.2218 108.732 64.8835 109.118 64.6364L148.474 41.8972C148.882 41.6905 149.333 41.5828 149.79 41.5828C150.247 41.5828 150.698 41.6905 151.106 41.8972L153.411 43.2287C153.764 43.4591 154.064 43.763 154.29 44.1198C154.515 44.4765 154.661 44.8777 154.718 45.2959Z" fill="#F5F5F5"/>
<path d="M113.83 133.109C113.804 133.114 113.777 133.114 113.751 133.109C113.7 133.134 113.647 133.152 113.593 133.164L113.325 133.231C112.794 133.33 112.247 133.286 111.738 133.103C111.638 133.066 111.54 133.021 111.446 132.97L109.136 131.638C108.754 131.387 108.436 131.05 108.208 130.654C107.98 130.258 107.848 129.814 107.823 129.358V66.88C107.838 66.4228 107.97 65.9771 108.206 65.585L113.143 68.4365C112.907 68.8286 112.775 69.2743 112.76 69.7315V132.246C112.746 132.493 112.817 132.737 112.96 132.939C113.044 133.04 113.155 133.115 113.28 133.155C113.405 133.195 113.539 133.198 113.666 133.164L113.83 133.109Z" fill="#E0E0E0"/>
<path d="M139.67 91.6985C141.39 92.8476 143.597 92.9145 145.835 92.495" stroke="#455A64" stroke-width="1.25" stroke-miterlimit="10" stroke-linecap="round"/>
<path d="M134.034 79.6479C135.858 79.1189 136.958 80.0188 137.153 82.5967C137.39 85.7705 137.317 88.7557 138.946 90.5858" stroke="#455A64" stroke-width="1.25" stroke-miterlimit="10" stroke-linecap="round"/>
<path d="M131.036 96.672C129.662 93.3158 128.957 82.9555 132.86 80.256" stroke="#455A64" stroke-width="1.25" stroke-miterlimit="10" stroke-linecap="round"/>
<path d="M142.813 103.056C138.332 103.585 134.107 102.241 131.717 98.046" stroke="#455A64" stroke-width="1.25" stroke-miterlimit="10" stroke-linecap="round"/>
<path d="M143.701 100.606C136.49 101.39 131.352 97.7238 132.197 85.4422C132.283 84.287 132.921 82.9616 133.778 82.463H133.809C134.684 81.9827 135.572 82.5481 135.554 83.7155C135.426 92.5011 138.271 96.5808 145.476 95.304" stroke="#455A64" stroke-width="1.25" stroke-miterlimit="10" stroke-linecap="round"/>
<path d="M141.135 105.987C132.118 106.595 127.291 100.606 128.002 87.9775C128.239 83.8066 129.826 79.1858 132.951 77.3801C132.994 77.3502 133.039 77.3238 133.085 77.301C136.259 75.5561 138.733 77.3862 139.062 81.6665C139.378 85.7766 139.493 90.6284 146.285 89.4793" stroke="#455A64" stroke-width="1.25" stroke-miterlimit="10" stroke-linecap="round"/>
<path d="M134.976 108.273C136.343 108.762 137.781 109.022 139.232 109.045" stroke="#455A64" stroke-width="1.25" stroke-miterlimit="10" stroke-linecap="round"/>
<path d="M128.002 102.752C129.166 105.037 131.106 106.833 133.474 107.817" stroke="#455A64" stroke-width="1.25" stroke-miterlimit="10" stroke-linecap="round"/>
<path d="M128.543 79.4838C124.652 86.6642 125.643 96.295 127.254 100.94" stroke="#455A64" stroke-width="1.25" stroke-miterlimit="10" stroke-linecap="round"/>
<path d="M141.056 81.1801C140.691 77.2828 139.7 74.6198 136.873 73.9935C134.617 73.5011 131.729 74.9299 129.437 78.0793" stroke="#455A64" stroke-width="1.25" stroke-miterlimit="10" stroke-linecap="round"/>
<path d="M146.571 86.7798C144.248 87.5945 141.78 87.0899 141.348 83.5635" stroke="#455A64" stroke-width="1.25" stroke-miterlimit="10" stroke-linecap="round"/>
<path d="M146.735 84.0986C144.303 84.1654 143.178 83.0832 142.588 78.7238C141.682 72.0358 138.223 69.1722 132.86 72.273C127.23 75.5197 123.85 83.5635 123.594 90.215C123.102 102.734 127.029 107.713 133.201 110.236C134.578 110.786 136.021 111.156 137.493 111.337" stroke="#455A64" stroke-width="1.25" stroke-miterlimit="10" stroke-linecap="round"/>
<path d="M143.683 74.9542C144.163 77.5869 144.418 81.2592 146.802 81.1801" stroke="#455A64" stroke-width="1.25" stroke-miterlimit="10" stroke-linecap="round"/>
<path d="M138.417 68.2661C140.722 68.6978 142.448 70.613 143.324 73.4341" stroke="#455A64" stroke-width="1.25" stroke-miterlimit="10" stroke-linecap="round"/>
<path d="M129.449 72.1695C131.881 69.6524 134.745 68.2844 137.153 68.181" stroke="#455A64" stroke-width="1.25" stroke-miterlimit="10" stroke-linecap="round"/>
<path d="M122.451 84.1654C123.484 80.2214 125.38 76.556 128.002 73.4342" stroke="#455A64" stroke-width="1.25" stroke-miterlimit="10" stroke-linecap="round"/>
<path d="M121.551 96.6719C121.129 93.1013 121.25 89.4873 121.91 85.9529" stroke="#455A64" stroke-width="1.25" stroke-miterlimit="10" stroke-linecap="round"/>
<path d="M124.64 106.947C123.226 104.418 122.268 101.66 121.807 98.7999" stroke="#455A64" stroke-width="1.25" stroke-miterlimit="10" stroke-linecap="round"/>
<path d="M133.9 114.018C131.042 112.851 127.856 111.148 125.832 108.425" stroke="#455A64" stroke-width="1.25" stroke-miterlimit="10" stroke-linecap="round"/>
<path d="M130.72 115.842C122.153 112.34 119.168 103.105 119.168 92.8294C119.168 82.5542 124.032 71.4886 132.842 66.655C138.819 63.384 146.789 66.9286 146.789 77.2038" stroke="#455A64" stroke-width="1.25" stroke-miterlimit="10" stroke-linecap="round"/>
<path d="M141.664 98.0947C142.74 98.1483 143.818 98.1056 144.886 97.967" stroke="#455A64" stroke-width="1.25" stroke-miterlimit="10" stroke-linecap="round"/>
<path d="M135.779 94.8479C136.213 95.6635 136.827 96.3695 137.575 96.912C138.323 97.4546 139.185 97.8195 140.095 97.9791" stroke="#455A64" stroke-width="1.25" stroke-miterlimit="10" stroke-linecap="round"/>
<path d="M133.961 84.4512C133.669 87.9776 134.113 91.2182 135.116 93.5225" stroke="#455A64" stroke-width="1.25" stroke-miterlimit="10" stroke-linecap="round"/>
<path d="M136.612 62.1983C139.049 61.7028 141.583 62.1714 143.683 63.5055" stroke="#455A64" stroke-width="1.25" stroke-miterlimit="10" stroke-linecap="round"/>
<path d="M125.856 68.7039C128.27 66.0643 131.269 64.0259 134.611 62.7516" stroke="#455A64" stroke-width="1.25" stroke-miterlimit="10" stroke-linecap="round"/>
<path d="M122.859 114.207C123.742 115.307 124.851 116.205 126.111 116.839" stroke="#455A64" stroke-width="1.25" stroke-miterlimit="10" stroke-linecap="round"/>
<path d="M118.852 107.434C119.532 109.319 120.516 111.082 121.764 112.65" stroke="#455A64" stroke-width="1.25" stroke-miterlimit="10" stroke-linecap="round"/>
<path d="M23.3717 143.148C23.3938 142.743 23.5104 142.349 23.712 141.997C23.9137 141.646 24.1948 141.346 24.533 141.123L84.2082 106.674C84.5702 106.491 84.9701 106.396 85.3756 106.396C85.7811 106.396 86.1809 106.491 86.5429 106.674L87.8562 107.434C88.1957 107.655 88.4783 107.953 88.6812 108.303C88.884 108.654 89.0013 109.048 89.0236 109.452V155.192C89.0013 155.597 88.884 155.992 88.6812 156.343C88.4785 156.695 88.1959 156.994 87.8562 157.217L28.181 191.666C27.8201 191.849 27.4212 191.944 27.0167 191.944C26.6122 191.944 26.2133 191.849 25.8524 191.666L24.5391 190.912C24.1996 190.691 23.917 190.393 23.7141 190.042C23.5113 189.692 23.394 189.298 23.3717 188.893V143.148Z" fill="#92E3A9"/>
<path opacity="0.4" d="M23.712 141.998L27.0195 143.908L88.6829 108.303C88.4842 107.949 88.1999 107.65 87.856 107.434L86.5367 106.674C86.1757 106.491 85.7769 106.396 85.3723 106.396C84.9678 106.396 84.5689 106.491 84.208 106.674L24.5389 141.123C24.1918 141.338 23.9068 141.64 23.712 141.998Z" fill="white"/>
<path opacity="0.1" d="M23.3654 143.148V188.887C23.3879 189.293 23.5059 189.688 23.7098 190.04C23.9137 190.392 24.1978 190.691 24.5389 190.912L25.8522 191.672C25.9535 191.729 26.0592 191.778 26.1683 191.818C26.6218 191.966 27.1064 191.991 27.5728 191.891C27.6494 191.877 27.7247 191.857 27.7978 191.83C27.8466 191.818 27.8937 191.8 27.9376 191.775C27.8493 191.814 27.7541 191.833 27.6579 191.833C27.5617 191.833 27.4666 191.814 27.3782 191.775C27.2536 191.692 27.1542 191.576 27.0909 191.439C27.0277 191.303 27.003 191.152 27.0195 191.003V145.251C27.0072 145.044 27.0589 144.837 27.1676 144.66C27.2764 144.483 27.4369 144.343 27.6275 144.26L27.0195 143.908L23.712 141.998C23.4999 142.345 23.3805 142.741 23.3654 143.148Z" fill="black"/>
<path opacity="0.2" d="M27.0195 143.908L54.6531 154.244C55.6092 154.601 56.6586 154.621 57.6279 154.302C58.5973 153.983 59.4289 153.342 59.9853 152.486L64.448 145.677L88.9261 108.175L65.3114 145.92L89.0233 155.204C89.0006 155.616 88.8752 156.015 88.6586 156.365L65.2445 146.029L60.0826 154.28C59.5105 155.196 58.6275 155.874 57.5956 156.191C56.5638 156.508 55.4521 156.443 54.4646 156.007L50.8166 154.383L27.36 191.763C27.2353 191.68 27.1359 191.563 27.0727 191.427C27.0094 191.291 26.9847 191.14 27.0013 190.991V190.231L50.6586 154.359L27.0195 143.908Z" fill="black"/>
<path d="M237.862 17.0238C237.877 16.866 237.853 16.7067 237.79 16.561C237.727 16.4153 237.628 16.2879 237.503 16.1908V16.1908H237.473L235.041 14.7742C234.893 14.7052 234.729 14.6773 234.566 14.6934C234.404 14.7094 234.248 14.7688 234.116 14.8654L196.384 36.5528L195.369 33.1662C195.288 32.8612 195.092 32.5996 194.821 32.4366L192.365 31.0078C192.179 30.9 191.967 30.8457 191.753 30.8511C191.538 30.8564 191.329 30.9212 191.149 31.0382L174.964 40.3893C174.582 40.6399 174.264 40.9768 174.036 41.3729C173.808 41.7689 173.676 42.2129 173.651 42.6693V96.6718C173.637 96.8295 173.662 96.9882 173.725 97.1336C173.788 97.279 173.885 97.4066 174.01 97.5048V97.5048H174.04L176.472 98.9214H176.502C176.65 98.9792 176.809 98.9994 176.966 98.9803C177.123 98.9612 177.273 98.9034 177.402 98.812L236.512 64.6849C236.894 64.4343 237.212 64.0974 237.44 63.7013C237.668 63.3053 237.8 62.8613 237.825 62.4049L237.862 17.0238Z" fill="#92E3A9"/>
<path opacity="0.4" d="M194.803 32.4186C194.619 32.3233 194.413 32.2782 194.206 32.2878C193.999 32.2974 193.798 32.3614 193.624 32.4734L177.433 41.8183C177.047 42.0654 176.727 42.4037 176.502 42.8033L174.034 41.3745C174.253 40.971 174.574 40.6315 174.964 40.3895L191.155 31.0446C191.336 30.9289 191.545 30.8649 191.759 30.8595C191.973 30.8541 192.185 30.9076 192.371 31.0142V31.0142L194.803 32.4186Z" fill="white"/>
<path opacity="0.4" d="M237.406 16.1181C237.262 16.0716 237.109 16.059 236.959 16.0811C236.809 16.1033 236.667 16.1596 236.542 16.2458L198.445 38.225C198.29 38.3281 198.113 38.3921 197.928 38.4115C197.743 38.4309 197.556 38.4052 197.383 38.3364C197.21 38.2676 197.057 38.1579 196.936 38.0167C196.815 37.8756 196.73 37.7071 196.688 37.5258L196.396 36.553L234.092 14.817C234.275 14.7034 234.485 14.6423 234.7 14.6407C234.819 14.6391 234.936 14.6684 235.041 14.7258V14.7258L237.406 16.1181Z" fill="white"/>
<path opacity="0.1" d="M176.32 98.7575C176.356 98.8097 176.399 98.8568 176.448 98.8974L174.058 97.5233C173.964 97.4576 173.887 97.37 173.833 97.2679C173.807 97.22 173.786 97.1689 173.772 97.1159C173.726 96.9789 173.704 96.835 173.706 96.6903V42.6695C173.703 42.6169 173.703 42.5641 173.706 42.5115C173.718 42.4011 173.736 42.2915 173.76 42.1831C173.76 42.1284 173.791 42.0737 173.803 42.019C173.858 41.8523 173.925 41.6898 174.004 41.5326C174.028 41.478 174.057 41.4252 174.089 41.3745L176.557 42.8033C176.321 43.1951 176.189 43.641 176.174 44.0983V98.0948C176.168 98.1717 176.168 98.249 176.174 98.3259C176.171 98.3684 176.171 98.411 176.174 98.4535V98.5204L176.211 98.6055C176.238 98.6622 176.275 98.7136 176.32 98.7575V98.7575Z" fill="black"/>
<path d="M136.605 187.106C136.574 186.541 136.411 185.991 136.128 185.501C135.844 185.011 135.45 184.594 134.976 184.285L133.651 183.519C133.145 183.266 132.587 183.135 132.021 183.135C131.456 183.135 130.898 183.266 130.392 183.519L86.3664 208.921C85.8924 209.23 85.4979 209.647 85.2149 210.137C84.9318 210.627 84.768 211.177 84.7369 211.742V216.928C84.768 217.493 84.9318 218.043 85.2149 218.533C85.4979 219.023 85.8924 219.44 86.3664 219.749L87.6979 220.515C88.2022 220.77 88.7593 220.903 89.3243 220.903C89.8893 220.903 90.4464 220.77 90.9507 220.515L134.976 195.113C135.451 194.805 135.846 194.388 136.129 193.898C136.412 193.408 136.575 192.857 136.605 192.292V187.106Z" fill="#37474F"/>
<path d="M84.7369 216.928C84.7671 217.494 84.9304 218.044 85.2136 218.534C85.4967 219.024 85.8917 219.441 86.3664 219.749L87.6979 220.516C88.1575 220.745 88.6604 220.876 89.1739 220.898C89.6873 220.92 90.1995 220.833 90.6771 220.643C89.9049 220.935 89.3213 220.503 89.3213 219.573V214.393C89.3402 213.824 89.5056 213.269 89.8016 212.782L85.2173 210.137C84.9221 210.622 84.7566 211.175 84.7369 211.742V216.928Z" fill="#263238"/>
<path d="M136.551 186.656C136.362 185.963 135.73 185.744 134.976 186.176L90.9507 211.584C90.4673 211.881 90.0709 212.301 89.8016 212.8L85.2234 210.155C85.4921 209.657 85.8861 209.238 86.3664 208.939L130.386 183.531C130.892 183.278 131.449 183.147 132.015 183.147C132.581 183.147 133.138 183.278 133.644 183.531L134.976 184.303C135.384 184.568 135.735 184.913 136.005 185.318C136.276 185.722 136.462 186.177 136.551 186.656Z" fill="#455A64"/>
<path d="M94.927 212.192C95.7843 211.699 96.4774 212.101 96.4774 213.086C96.4485 213.623 96.2929 214.146 96.0235 214.612C95.7541 215.078 95.3784 215.474 94.927 215.767C94.0758 216.259 93.3827 215.858 93.3827 214.873C93.412 214.337 93.567 213.814 93.8353 213.349C94.1035 212.883 94.4775 212.487 94.927 212.192Z" fill="#E6E6E6"/>
<path d="M100.046 209.255C100.898 208.763 101.591 209.164 101.591 210.149C101.562 210.686 101.407 211.208 101.139 211.674C100.871 212.14 100.496 212.536 100.046 212.83C99.1891 213.323 98.5021 212.922 98.5021 211.937C98.5309 211.4 98.6857 210.877 98.954 210.411C99.2223 209.946 99.5965 209.55 100.046 209.255Z" fill="#E6E6E6"/>
<path d="M105.184 206.306C106.041 205.814 106.734 206.209 106.734 207.2C106.705 207.737 106.549 208.259 106.28 208.724C106.01 209.188 105.635 209.583 105.184 209.875C104.333 210.368 103.64 209.967 103.64 208.982C103.669 208.446 103.824 207.924 104.092 207.46C104.361 206.995 104.735 206.6 105.184 206.306Z" fill="#E6E6E6"/>
<path d="M110.279 203.352C111.13 202.859 111.823 203.26 111.823 204.245C111.794 204.781 111.639 205.303 111.371 205.767C111.102 206.232 110.728 206.627 110.279 206.921C109.422 207.413 108.729 207.018 108.729 206.027C108.758 205.49 108.914 204.968 109.183 204.503C109.453 204.039 109.828 203.644 110.279 203.352Z" fill="#E6E6E6"/>
<path d="M115.392 200.397C116.25 199.904 116.943 200.306 116.943 201.291C116.913 201.828 116.757 202.35 116.487 202.816C116.218 203.282 115.843 203.678 115.392 203.972C114.541 204.464 113.848 204.063 113.848 203.078C113.877 202.541 114.032 202.019 114.3 201.553C114.568 201.087 114.942 200.691 115.392 200.397Z" fill="#E6E6E6"/>
<path d="M120.512 197.442C121.363 196.949 122.056 197.351 122.056 198.336C122.027 198.872 121.872 199.395 121.603 199.86C121.335 200.326 120.961 200.722 120.512 201.017C119.654 201.509 118.961 201.108 118.961 200.123C118.99 199.586 119.146 199.063 119.415 198.597C119.685 198.131 120.06 197.735 120.512 197.442Z" fill="#E6E6E6"/>
<path d="M125.625 194.487C126.476 193.995 127.169 194.396 127.169 195.381C127.14 195.918 126.986 196.44 126.717 196.906C126.449 197.372 126.075 197.768 125.625 198.062C124.774 198.555 124.081 198.153 124.081 197.168C124.111 196.632 124.266 196.11 124.534 195.644C124.803 195.179 125.176 194.782 125.625 194.487Z" fill="#E6E6E6"/>
<path d="M130.72 191.52C131.577 191.027 132.27 191.423 132.27 192.414C132.241 192.95 132.085 193.472 131.816 193.937C131.546 194.402 131.171 194.797 130.72 195.089C129.869 195.581 129.176 195.18 129.176 194.195C129.205 193.659 129.36 193.138 129.628 192.673C129.897 192.208 130.271 191.813 130.72 191.52Z" fill="#E6E6E6"/>
<path d="M136.605 204.209C136.574 203.644 136.411 203.094 136.128 202.604C135.844 202.114 135.45 201.697 134.976 201.388L133.651 200.64C133.145 200.387 132.587 200.256 132.021 200.256C131.456 200.256 130.898 200.387 130.392 200.64L86.3664 226.042C85.8917 226.351 85.4967 226.767 85.2136 227.258C84.9304 227.748 84.7671 228.298 84.7369 228.863V234.05C84.768 234.615 84.9318 235.165 85.2149 235.655C85.4979 236.145 85.8924 236.561 86.3664 236.871L87.6979 237.637C88.2022 237.892 88.7593 238.024 89.3243 238.024C89.8893 238.024 90.4464 237.892 90.9507 237.637L134.976 212.192C135.451 211.883 135.846 211.467 136.129 210.977C136.412 210.486 136.575 209.936 136.605 209.371V204.209Z" fill="#37474F"/>
<path d="M84.7369 234.031C84.768 234.596 84.9318 235.146 85.2149 235.636C85.4979 236.127 85.8924 236.543 86.3664 236.852L87.6979 237.619C88.1575 237.848 88.6604 237.979 89.1739 238.001C89.6873 238.023 90.1995 237.936 90.6771 237.746C89.9049 238.038 89.3213 237.606 89.3213 236.676V231.49C89.341 230.923 89.5064 230.37 89.8016 229.885L85.2173 227.24C84.9221 227.725 84.7566 228.278 84.7369 228.845V234.031Z" fill="#263238"/>
<path d="M136.551 203.747C136.362 203.054 135.73 202.835 134.976 203.267L90.9507 228.675C90.4673 228.972 90.0709 229.391 89.8016 229.891L85.2234 227.246C85.4921 226.748 85.8861 226.329 86.3664 226.03L130.386 200.64C130.892 200.387 131.449 200.256 132.015 200.256C132.581 200.256 133.138 200.387 133.644 200.64L134.976 201.412C135.382 201.675 135.731 202.017 136.002 202.419C136.273 202.82 136.459 203.272 136.551 203.747Z" fill="#455A64"/>
<path d="M94.927 229.313C95.7843 228.821 96.4774 229.222 96.4774 230.207C96.4475 230.744 96.2915 231.267 96.0222 231.733C95.7529 232.198 95.3777 232.594 94.927 232.888C94.0758 233.381 93.3827 232.979 93.3827 231.994C93.4115 231.458 93.5663 230.935 93.8346 230.469C94.1029 230.004 94.4772 229.607 94.927 229.313Z" fill="#E6E6E6"/>
<path d="M100.046 226.358C100.898 225.866 101.591 226.267 101.591 227.252C101.561 227.789 101.406 228.311 101.138 228.777C100.87 229.243 100.496 229.639 100.046 229.933C99.1891 230.426 98.5021 230.025 98.5021 229.04C98.5299 228.503 98.6843 227.98 98.9527 227.514C99.2211 227.048 99.5958 226.652 100.046 226.358Z" fill="#E6E6E6"/>
<path d="M105.184 223.41C106.041 222.911 106.734 223.312 106.734 224.297C106.706 224.835 106.551 225.358 106.281 225.824C106.012 226.29 105.636 226.686 105.184 226.978C104.333 227.471 103.64 227.07 103.64 226.085C103.669 225.549 103.824 225.027 104.092 224.563C104.361 224.098 104.735 223.703 105.184 223.41Z" fill="#E6E6E6"/>
<path d="M110.279 220.455C111.13 219.962 111.823 220.357 111.823 221.348C111.794 221.884 111.639 222.406 111.371 222.87C111.102 223.335 110.728 223.73 110.279 224.024C109.422 224.516 108.729 224.121 108.729 223.13C108.758 222.593 108.914 222.071 109.183 221.606C109.453 221.142 109.828 220.747 110.279 220.455Z" fill="#E6E6E6"/>
<path d="M115.392 217.5C116.25 217.007 116.943 217.409 116.943 218.394C116.913 218.93 116.757 219.452 116.488 219.917C116.219 220.382 115.843 220.777 115.392 221.069C114.541 221.561 113.848 221.166 113.848 220.181C113.877 219.644 114.032 219.122 114.3 218.656C114.568 218.19 114.942 217.794 115.392 217.5Z" fill="#E6E6E6"/>
<path d="M120.512 214.545C121.363 214.052 122.056 214.454 122.056 215.439C122.026 215.975 121.87 216.497 121.602 216.963C121.334 217.428 120.961 217.825 120.512 218.12C119.654 218.612 118.961 218.211 118.961 217.226C118.99 216.689 119.145 216.165 119.415 215.699C119.684 215.233 120.06 214.838 120.512 214.545Z" fill="#E6E6E6"/>
<path d="M125.625 211.584C126.476 211.091 127.169 211.493 127.169 212.478C127.14 213.014 126.985 213.537 126.717 214.002C126.448 214.468 126.074 214.864 125.625 215.159C124.774 215.651 124.081 215.25 124.081 214.265C124.11 213.729 124.265 213.206 124.533 212.74C124.801 212.275 125.175 211.879 125.625 211.584Z" fill="#E6E6E6"/>
<path d="M130.72 208.641C131.577 208.143 132.27 208.544 132.27 209.529C132.239 210.063 132.082 210.583 131.813 211.045C131.544 211.508 131.169 211.901 130.72 212.192C129.869 212.684 129.176 212.283 129.176 211.298C129.208 210.765 129.364 210.248 129.632 209.786C129.9 209.325 130.273 208.933 130.72 208.641Z" fill="#E6E6E6"/>
<path d="M83.296 217.859C83.2644 217.294 83.1005 216.744 82.8174 216.254C82.5344 215.764 82.1402 215.347 81.6666 215.037L80.335 214.271C79.8308 214.016 79.2737 213.884 78.7086 213.884C78.1436 213.884 77.5865 214.016 77.0822 214.271L56.7325 226.042C56.2578 226.351 55.8628 226.767 55.5797 227.257C55.2965 227.748 55.1332 228.298 55.103 228.863V251.171C55.1346 251.736 55.2985 252.286 55.5816 252.776C55.8646 253.266 56.2588 253.682 56.7325 253.992L58.0579 254.752C58.5639 255.005 59.1218 255.136 59.6873 255.136C60.2529 255.136 60.8108 255.005 61.3168 254.752L81.6605 242.981C82.1362 242.673 82.5324 242.257 82.8167 241.767C83.1009 241.276 83.2652 240.726 83.296 240.16V217.859Z" fill="#92E3A9"/>
<path opacity="0.2" d="M55.103 251.171C55.1346 251.736 55.2985 252.286 55.5816 252.776C55.8646 253.266 56.2588 253.682 56.7325 253.992L58.0579 254.752C58.5175 254.982 59.0205 255.112 59.5339 255.134C60.0473 255.156 60.5595 255.069 61.0371 254.88C60.271 255.171 59.6874 254.74 59.6874 253.81V231.508C59.7076 230.942 59.8707 230.389 60.1616 229.903L55.5773 227.258C55.2857 227.744 55.1225 228.297 55.103 228.863V251.171Z" fill="black"/>
<path opacity="0.3" d="M83.2352 217.396C83.0407 216.709 82.4144 216.484 81.6605 216.922L61.3168 228.687C60.8332 228.984 60.4368 229.403 60.1677 229.903L55.5834 227.258C55.8561 226.761 56.2517 226.342 56.7325 226.042L77.0701 214.277C77.5761 214.025 78.134 213.893 78.6995 213.893C79.2651 213.893 79.8229 214.025 80.329 214.277L81.6605 215.043C82.0689 215.308 82.4191 215.653 82.6898 216.058C82.9605 216.462 83.1461 216.918 83.2352 217.396Z" fill="white"/>
<path d="M71.1846 226.583C73.1424 225.452 74.7293 226.364 74.7293 228.626C74.6627 229.856 74.307 231.053 73.6911 232.12C73.0752 233.187 72.2165 234.094 71.1846 234.767C69.2269 235.898 67.64 234.98 67.64 232.718C67.7056 231.488 68.0609 230.292 68.6769 229.226C69.2929 228.16 70.1522 227.254 71.1846 226.583Z" fill="#FAFAFA"/>
<path d="M78.1705 238.634C78.1705 234.919 75.5622 233.417 72.3459 235.272L70.3334 236.433C67.1232 238.287 64.5149 242.805 64.5149 246.52V247.517C66.3389 248.125 76.2857 242.361 78.1705 239.497V238.634Z" fill="#FAFAFA"/>
<path d="M266.426 174.046L259.014 169.79C258.722 169.632 258.291 169.742 257.798 170.137C257.525 170.344 257.251 170.544 256.971 170.745L256.667 170.939L256.12 171.286L255.725 171.505C255.567 171.596 255.403 171.693 255.239 171.778C255.074 171.864 254.941 171.924 254.789 171.997C254.637 172.07 254.497 172.149 254.345 172.216L253.846 172.429L253.433 172.599C253.25 172.672 253.068 172.739 252.886 172.8L252.509 172.94L251.901 173.116L251.554 173.219C251.347 173.28 251.135 173.329 250.946 173.377L250.636 173.45L249.967 173.584L249.694 173.633L248.982 173.736H248.751C248.502 173.736 248.253 173.791 248.003 173.803H247.809C247.547 173.803 247.292 173.803 247.031 173.833H246.848C246.581 173.833 246.313 173.833 246.046 173.833H245.924C245.644 173.833 245.371 173.797 245.091 173.773H245.012L244.155 173.663H244.112L243.395 173.523C243.245 173.358 243.07 173.217 242.878 173.104L242.793 173.055L235.497 168.836C234.889 168.489 234.329 168.738 233.977 169.626C229.192 181.494 219.008 193.533 212.223 196.542C212.088 196.598 211.957 196.665 211.834 196.743C211.748 196.792 211.675 196.846 211.59 196.901C211.505 196.956 211.523 196.95 211.487 196.98C211.384 197.054 211.287 197.136 211.195 197.223C211.098 197.321 211.001 197.418 210.909 197.527C210.424 198.054 210.154 198.744 210.155 199.461L211.134 226.128C211.134 233.898 214.442 242.106 221.191 246.027L228.596 250.283L228.693 250.338C232.119 252.238 236.058 253.009 239.947 252.539C241.401 252.302 242.75 251.63 243.814 250.612C258.619 235.296 265.836 214.533 265.836 203.072L266.815 175.189C266.833 174.569 266.687 174.198 266.426 174.046Z" fill="#92E3A9"/>
<path opacity="0.15" d="M228.383 250.186L221.154 246.009C214.411 242.087 211.098 233.879 211.098 226.109L210.113 199.424C210.12 198.96 210.234 198.504 210.444 198.091C210.655 197.678 210.958 197.319 211.329 197.041C211.167 197.178 211.016 197.329 210.879 197.491L218.284 201.747C217.794 202.276 217.525 202.971 217.53 203.692L218.503 230.353C218.497 238.093 221.756 246.24 228.383 250.186Z" fill="black"/>
<path opacity="0.3" d="M266.413 174.034C266.128 173.882 265.702 173.997 265.197 174.393C258.509 179.488 248.569 179.494 243.498 173.59L243.407 173.487C245.907 173.972 248.481 173.922 250.961 173.341C253.44 172.759 255.768 171.659 257.792 170.112C258.315 169.711 258.74 169.608 259.008 169.766L266.413 174.034Z" fill="white"/>
<path opacity="0.5" d="M242.793 173.019C242.227 172.751 241.71 173.019 241.376 173.858C236.597 185.732 226.407 197.764 219.616 200.774C219.105 201.006 218.651 201.346 218.284 201.771L210.879 197.515C211.016 197.353 211.167 197.202 211.329 197.065L211.493 196.931C211.552 196.894 211.609 196.854 211.663 196.81L211.845 196.7C211.962 196.628 212.084 196.565 212.21 196.512C218.996 193.502 229.186 181.464 233.964 169.589C234.22 168.981 234.572 168.659 234.98 168.659C235.158 168.661 235.333 168.711 235.484 168.805L242.793 173.019Z" fill="white"/>
<path d="M279.139 199.643L275.187 197.357L259.689 233.879L262.334 235.405L279.139 199.643Z" fill="#455A64"/>
<path d="M255.664 224.164L251.706 221.884L247.456 230.876L251.414 233.156L255.664 224.164Z" fill="#455A64"/>
<path d="M263.349 246.112L251.414 233.156L255.664 224.163L262.334 235.405L279.139 199.643L285.371 205.723L263.349 246.112Z" fill="#37474F"/>
<path d="M247.456 230.876L251.414 233.156L263.349 246.112L259.397 243.857L247.456 230.876Z" fill="#263238"/>
</svg>
